HIERARCHY
ROOT Hips
{
	OFFSET -0.001795 -0.223333 0.028219
	CHANNELS 6 Xposition Yposition Zposition Zrotation Yrotation Xrotation 
	JOINT LeftUpLeg
	{
		OFFSET 0.069520 -0.091406 -0.006815
		CHANNELS 3 Zrotation Yrotation Xrotation
		JOINT LeftLeg
		{
			OFFSET 0.034277 -0.375199 -0.004496
			CHANNELS 3 Zrotation Yrotation Xrotation
			JOINT LeftFoot
			{
				OFFSET -0.013596 -0.397961 -0.043693
				CHANNELS 3 Zrotation Yrotation Xrotation
				JOINT LeftToe
				{
					OFFSET 0.026358 -0.055791 0.119288
					CHANNELS 3 Zrotation Yrotation Xrotation
					End Site
					{
						OFFSET 0.000000 0.000000 0.000000
					}
				}
			}
		}
	}
	JOINT RightUpLeg
	{
		OFFSET -0.067670 -0.090522 -0.004320
		CHANNELS 3 Zrotation Yrotation Xrotation
		JOINT RightLeg
		{
			OFFSET -0.038290 -0.382569 -0.008850
			CHANNELS 3 Zrotation Yrotation Xrotation
			JOINT RightFoot
			{
				OFFSET 0.015774 -0.398415 -0.042312
				CHANNELS 3 Zrotation Yrotation Xrotation
				JOINT RightToe
				{
					OFFSET -0.025372 -0.048144 0.123348
					CHANNELS 3 Zrotation Yrotation Xrotation
					End Site
					{
						OFFSET 0.000000 0.000000 0.000000
					}
				}
			}
		}
	}
	JOINT Spine
	{
		OFFSET -0.002533 0.108963 -0.026696
		CHANNELS 3 Zrotation Yrotation Xrotation
		JOINT Spine1
		{
			OFFSET 0.005487 0.135180 0.001092
			CHANNELS 3 Zrotation Yrotation Xrotation
			JOINT Spine2
			{
				OFFSET 0.001457 0.052922 0.025425
				CHANNELS 3 Zrotation Yrotation Xrotation
				JOINT Neck
				{
					OFFSET -0.002778 0.213870 -0.042857
					CHANNELS 3 Zrotation Yrotation Xrotation
					JOINT Head
					{
						OFFSET 0.005152 0.064970 0.051349
						CHANNELS 3 Zrotation Yrotation Xrotation
						End Site
						{
							OFFSET 0.000000 0.000000 0.000000
						}
					}
				}
				JOINT LeftShoulder
				{
					OFFSET 0.078845 0.121749 -0.034090
					CHANNELS 3 Zrotation Yrotation Xrotation
					JOINT LeftArm
					{
						OFFSET 0.090977 0.030469 -0.008868
						CHANNELS 3 Zrotation Yrotation Xrotation
						JOINT LeftForeArm
						{
							OFFSET 0.259612 -0.012772 -0.027456
							CHANNELS 3 Zrotation Yrotation Xrotation
							JOINT LeftHand
							{
								OFFSET 0.249234 0.008986 -0.001171
								CHANNELS 3 Zrotation Yrotation Xrotation
								End Site
								{
									OFFSET 0.000000 0.000000 0.000000
								}
							}
						}
					}
				}
				JOINT RightShoulder
				{
					OFFSET -0.081759 0.118833 -0.038615
					CHANNELS 3 Zrotation Yrotation Xrotation
					JOINT RightArm
					{
						OFFSET -0.096012 0.032551 -0.009143
						CHANNELS 3 Zrotation Yrotation Xrotation
						JOINT RightForeArm
						{
							OFFSET -0.253742 -0.013329 -0.021401
							CHANNELS 3 Zrotation Yrotation Xrotation
							JOINT RightHand
							{
								OFFSET -0.255298 0.007772 -0.005559
								CHANNELS 3 Zrotation Yrotation Xrotation
								End Site
								{
									OFFSET 0.000000 0.000000 0.000000
								}
							}
						}
					}
				}
			}
		}
	}
}
MOTION
Frames: 7
Frame Time: 0.050000
0.000000 0.947021 0.000000 0.134316 -1.905556 7.121953 5.096907 -0.335867 -4.280283 -0.009395 0.184894 -5.355425 1.161484 5.882141 10.572158 0.000000 0.000000 0.000000 -4.265032 0.524568 -5.285996 -2.318858 -0.028424 -4.347283 -0.124109 -5.154248 11.114113 0.000000 0.000000 0.000000 4.791411 0.316802 -5.611968 -2.472704 1.144111 -4.594607 -3.972863 4.320999 5.008488 5.629261 -2.258184 -13.306441 0.000000 0.000000 0.000000 -15.787635 -2.122539 -1.269391 -56.394833 -7.084982 -3.342756 -7.428306 -15.508266 1.480441 0.000000 0.000000 0.000000 13.318006 -5.266676 -3.109084 65.210286 4.672428 -3.415667 6.013152 18.978961 1.655179 0.000000 0.000000 0.000000 
0.000213 0.945939 0.001307 0.153450 -2.402651 7.912350 4.723554 -0.332728 -4.014953 0.532687 0.199221 -6.533546 1.306875 6.067011 10.555555 0.000000 0.000000 0.000000 -4.500699 0.585750 -6.063974 -2.456466 -0.000619 -3.976272 0.380465 -4.328863 11.372328 0.000000 0.000000 0.000000 5.884980 0.369626 -6.080642 -3.370042 1.506687 -5.123581 -4.729806 4.843184 4.652310 5.579684 -2.033071 -14.288430 0.000000 0.000000 0.000000 -17.069229 -2.000471 -1.598464 -54.953064 -7.370115 -3.023535 -7.418586 -14.775028 1.397779 0.000000 0.000000 0.000000 13.126661 -6.358802 -3.576625 66.260086 3.908847 -3.778773 6.299645 18.430990 1.649547 0.000000 0.000000 0.000000 
0.000258 0.945604 0.002180 0.585585 -2.133229 7.811341 4.190617 -0.352966 -4.285508 0.668430 0.137379 -5.235580 1.145558 5.508264 9.404406 0.000000 0.000000 0.000000 -4.817577 0.585340 -6.148644 -2.784633 0.034713 -3.770041 -0.229834 -5.399153 11.151065 0.000000 0.000000 0.000000 5.542672 0.346035 -5.907650 -3.112110 1.395409 -5.814865 -5.198039 4.186048 4.640813 4.848064 -1.778231 -13.138716 0.000000 0.000000 0.000000 -16.752134 -2.120627 -1.396045 -54.959739 -6.793571 -3.316340 -7.160405 -14.270508 1.329491 0.000000 0.000000 0.000000 14.166477 -5.061110 -3.109611 64.735542 3.597397 -3.992201 6.619542 18.545663 1.690027 0.000000 0.000000 0.000000 
0.000195 0.945652 0.002971 0.764897 -1.985298 8.223038 4.297990 -0.372249 -4.561534 0.364849 0.169259 -5.552318 0.805071 5.064667 9.866991 0.000000 0.000000 0.000000 -4.965471 0.621659 -6.722724 -3.004051 0.035257 -3.987257 -0.463180 -6.055943 11.838303 0.000000 0.000000 0.000000 5.679575 0.364703 -6.181424 -3.468690 1.549343 -5.285081 -5.227961 3.476055 3.347215 4.518989 -1.755400 -11.995392 0.000000 0.000000 0.000000 -16.942855 -1.770091 -1.511592 -55.198709 -6.922681 -3.143465 -6.031053 -13.625509 1.142837 0.000000 0.000000 0.000000 13.039446 -5.092279 -3.125287 65.160089 2.977557 -4.214966 7.798191 19.022223 1.885127 0.000000 0.000000 0.000000 
0.000003 0.945900 0.003585 0.991724 -1.636335 8.162113 3.870012 -0.384273 -4.653622 0.597038 0.146588 -5.342085 0.737935 4.949672 9.736359 0.000000 0.000000 0.000000 -5.048063 0.617899 -6.751835 -3.299121 0.057305 -3.970878 -0.788998 -6.594953 11.723412 0.000000 0.000000 0.000000 5.426695 0.354357 -6.139694 -3.245464 1.462200 -5.171710 -5.429783 3.045347 3.273619 4.129592 -1.517050 -11.985868 0.000000 0.000000 0.000000 -17.158610 -1.947698 -1.413210 -54.866232 -7.067077 -3.043392 -6.402606 -13.402559 1.169132 0.000000 0.000000 0.000000 12.927121 -5.157291 -3.172017 64.853186 2.836571 -4.279651 8.221048 19.155398 1.958855 0.000000 0.000000 0.000000 
-0.000215 0.946169 0.004063 1.237459 -1.409604 8.392353 3.820072 -0.403190 -4.909075 0.367196 0.156703 -5.233121 0.828319 5.134278 9.753245 0.000000 0.000000 0.000000 -5.189409 0.624556 -6.890919 -3.648368 0.065366 -4.190466 -0.888925 -6.895649 12.197022 0.000000 0.000000 0.000000 5.261809 0.354987 -6.252698 -3.239093 1.461593 -5.151026 -5.577609 2.832032 3.061583 4.224731 -1.594997 -11.863045 0.000000 0.000000 0.000000 -17.447217 -1.850073 -1.497778 -54.525539 -7.087559 -2.979943 -6.146706 -13.276217 1.128811 0.000000 0.000000 0.000000 12.480703 -5.082986 -3.097957 65.248653 2.752115 -4.311277 8.263007 19.195797 1.965394 0.000000 0.000000 0.000000 
-0.000425 0.946342 0.004296 1.317798 -1.096061 8.455162 3.742590 -0.418702 -5.113873 0.440894 0.142908 -4.996503 0.866108 5.344678 10.137499 0.000000 0.000000 0.000000 -5.080003 0.620478 -6.837984 -3.891099 0.071812 -4.332599 -0.820647 -6.709174 12.153260 0.000000 0.000000 0.000000 5.141468 0.341527 -6.173983 -3.153954 1.430540 -5.081417 -5.720116 2.557112 3.084884 4.282577 -1.579935 -12.299054 0.000000 0.000000 0.000000 -17.242692 -1.655529 -1.551430 -54.675985 -6.861104 -3.101678 -6.594391 -13.909754 1.237728 0.000000 0.000000 0.000000 12.418611 -5.165058 -3.141132 65.419537 2.671642 -4.369791 8.479078 19.623311 2.047924 0.000000 0.000000 0.000000 
